<svg width="24" height="24" viewBox="0 0 24 24" fill="none" xmlns="http://www.w3.org/2000/svg">
<path d="M12 2C6.47581 2 2 6.47581 2 12C2 17.5242 6.47581 22 12 22C17.5242 22 22 17.5242 22 12C22 6.47581 17.5242 2 12 2ZM6.51613 10.6855C6.64919 8.9879 7.81452 7.80645 8.77419 7.80645C9.73387 7.80645 10.8992 8.9879 11.0323 10.6855C11.0605 11.0323 10.5968 11.1653 10.4315 10.8669L10.0484 10.1815C9.7379 9.62903 9.27419 9.31048 8.77823 9.31048C8.28226 9.31048 7.81855 9.62903 7.50806 10.1815L7.125 10.8669C6.95161 11.1653 6.4879 11.0282 6.51613 10.6855ZM16.629 15.6371C15.4798 17.0161 13.7944 17.8065 12 17.8065C10.2056 17.8065 8.52016 17.0161 7.37097 15.6371C6.82661 14.9798 7.81452 14.1573 8.3629 14.8105C9.26613 15.8952 10.5887 16.5121 12 16.5121C13.4113 16.5121 14.7339 15.8911 15.6371 14.8105C16.1855 14.1573 17.1734 14.9839 16.629 15.6371ZM16.879 10.8669L16.496 10.1815C16.1855 9.62903 15.7218 9.31048 15.2258 9.31048C14.7298 9.31048 14.2661 9.62903 13.9556 10.1815L13.5726 10.8669C13.4073 11.1613 12.9435 11.0282 12.9718 10.6855C13.1048 8.9879 14.2702 7.80645 15.2298 7.80645C16.1895 7.80645 17.3548 8.9879 17.4879 10.6855C17.5121 11.0323 17.0444 11.1653 16.879 10.8669Z" fill="black"/>
</svg>
